<?xml version="1.0" encoding="utf-8"?>
<!-- Generator: Adobe Illustrator 26.0.1, SVG Export Plug-In . SVG Version: 6.00 Build 0)  -->
<svg version="1.1" id="Layer_1" xmlns="http://www.w3.org/2000/svg" xmlns:xlink="http://www.w3.org/1999/xlink" x="0px" y="0px"
	 viewBox="0 0 410 112" style="enable-background:new 0 0 410 112;" xml:space="preserve">
<style type="text/css">
	.st0{fill:none;stroke:#FFFFFF;stroke-miterlimit:10;}
	.st1{fill:#FFFFFF;stroke:#FFFFFF;stroke-miterlimit:10;}
	.st2{fill:#FFFFFF;}
	.st3{fill:#222222;}
</style>
<g>
	<g>
		<rect x="45" y="86.87" class="st0" width="10" height="10"/>
	</g>
	<g>
		<rect x="35" y="86.87" class="st1" width="10" height="10"/>
	</g>
	<g>
		<rect x="25" y="86.87" class="st0" width="10" height="10"/>
	</g>
	<g>
		<rect x="15" y="86.87" class="st0" width="10" height="10"/>
	</g>
	<g>
		<rect x="75" y="76.87" class="st0" width="10" height="10"/>
	</g>
	<g>
		<rect x="65" y="76.87" class="st0" width="10" height="10"/>
	</g>
	<g>
		<rect x="55" y="76.87" class="st0" width="10" height="10"/>
	</g>
	<g>
		<rect x="45" y="76.87" class="st1" width="10" height="10"/>
	</g>
	<g>
		<rect x="35" y="76.87" class="st0" width="10" height="10"/>
	</g>
	<g>
		<rect x="25" y="76.87" class="st0" width="10" height="10"/>
	</g>
	<g>
		<rect x="15" y="76.87" class="st1" width="10" height="10"/>
	</g>
	<g>
		<rect x="75" y="66.87" class="st1" width="10" height="10"/>
	</g>
	<g>
		<rect x="65" y="66.87" class="st1" width="10" height="10"/>
	</g>
	<g>
		<rect x="55" y="66.87" class="st1" width="10" height="10"/>
	</g>
	<g>
		<rect x="45" y="66.87" class="st1" width="10" height="10"/>
	</g>
	<g>
		<rect x="35" y="66.87" class="st1" width="10" height="10"/>
	</g>
	<g>
		<rect x="25" y="66.87" class="st1" width="10" height="10"/>
	</g>
	<g>
		<rect x="15" y="66.87" class="st0" width="10" height="10"/>
	</g>
	<g>
		<rect x="75" y="56.87" class="st0" width="10" height="10"/>
	</g>
	<g>
		<rect x="65" y="56.87" class="st0" width="10" height="10"/>
	</g>
	<g>
		<rect x="55" y="56.87" class="st0" width="10" height="10"/>
	</g>
	<g>
		<rect x="45" y="56.87" class="st1" width="10" height="10"/>
	</g>
	<g>
		<rect x="35" y="56.87" class="st0" width="10" height="10"/>
	</g>
	<g>
		<rect x="25" y="56.87" class="st0" width="10" height="10"/>
	</g>
	<g>
		<rect x="15" y="56.87" class="st1" width="10" height="10"/>
	</g>
	<g>
		<rect x="75" y="46.87" class="st0" width="10" height="10"/>
	</g>
	<g>
		<rect x="65" y="46.87" class="st0" width="10" height="10"/>
	</g>
	<g>
		<rect x="55" y="46.87" class="st0" width="10" height="10"/>
	</g>
	<g>
		<rect x="45" y="46.87" class="st0" width="10" height="10"/>
	</g>
	<g>
		<rect x="35" y="46.87" class="st1" width="10" height="10"/>
	</g>
	<g>
		<rect x="25" y="46.87" class="st0" width="10" height="10"/>
	</g>
</g>
<path class="st0" d="M85,106.87H15c-5.52,0-10-4.48-10-10v-70c0-5.52,4.48-10,10-10h70c5.52,0,10,4.48,10,10v70
	C95,102.39,90.52,106.87,85,106.87z"/>
<path class="st2" d="M85,16.87H15c-5.52,0-10,4.48-10,10v10h90v-10C95,21.35,90.52,16.87,85,16.87z"/>
<circle class="st3" cx="65" cy="26.66" r="5"/>
<circle class="st3" cx="35" cy="26.66" r="5"/>
<path class="st2" d="M35,4.57c-1.38,0-2.5,1.12-2.5,2.5h0v20h0.02c0.11,1.28,1.17,2.29,2.48,2.29c1.31,0,2.37-1.01,2.48-2.29h0.02
	v-20c0,0,0,0,0,0C37.5,5.69,36.38,4.57,35,4.57z"/>
<path class="st2" d="M67.5,7.07c0-1.38-1.12-2.5-2.5-2.5c-1.38,0-2.5,1.12-2.5,2.5h0v20h0.02c0.11,1.28,1.17,2.29,2.48,2.29
	c1.31,0,2.37-1.01,2.48-2.29h0.02L67.5,7.07C67.5,7.08,67.5,7.07,67.5,7.07z"/>
<g>
	<path class="st2" d="M122.75,29.42c3.04,0,5.37,0.66,6.99,1.99c1.62,1.32,2.43,3.34,2.43,6.04v15.09h-4.31l-1.2-3.08h-0.16
		c-0.65,0.81-1.31,1.47-1.99,1.99c-0.68,0.51-1.45,0.89-2.33,1.13c-0.88,0.24-1.94,0.36-3.2,0.36c-1.34,0-2.54-0.26-3.6-0.77
		c-1.06-0.51-1.89-1.3-2.5-2.36c-0.61-1.06-0.91-2.41-0.91-4.04c0-2.4,0.84-4.18,2.53-5.32c1.69-1.14,4.22-1.77,7.6-1.89l3.93-0.12
		v-0.99c0-1.19-0.31-2.06-0.93-2.61c-0.62-0.55-1.49-0.83-2.59-0.83c-1.09,0-2.17,0.16-3.22,0.47c-1.05,0.31-2.11,0.7-3.16,1.17
		l-2.05-4.17c1.2-0.64,2.55-1.13,4.04-1.5C119.61,29.6,121.15,29.42,122.75,29.42z M126.03,42.04l-2.39,0.08
		c-2,0.05-3.39,0.41-4.16,1.07c-0.78,0.66-1.17,1.53-1.17,2.61c0,0.95,0.28,1.62,0.83,2.02c0.55,0.4,1.28,0.6,2.17,0.6
		c1.32,0,2.44-0.39,3.35-1.17c0.91-0.78,1.37-1.9,1.37-3.34V42.04z"/>
	<path class="st2" d="M151.39,29.46c2.42,0,4.36,0.66,5.83,1.97c1.47,1.32,2.21,3.43,2.21,6.33v14.77h-6.18V39.31
		c0-1.62-0.29-2.84-0.88-3.67c-0.59-0.82-1.51-1.24-2.76-1.24c-1.89,0-3.18,0.64-3.87,1.92s-1.03,3.13-1.03,5.55v10.66h-6.18V29.89
		h4.72l0.83,2.9h0.34c0.49-0.78,1.09-1.42,1.81-1.9c0.72-0.49,1.53-0.84,2.41-1.07C149.53,29.58,150.45,29.46,151.39,29.46z"/>
	<path class="st2" d="M178.66,29.46c2.42,0,4.36,0.66,5.83,1.97c1.47,1.32,2.21,3.43,2.21,6.33v14.77h-6.18V39.31
		c0-1.62-0.29-2.84-0.88-3.67c-0.59-0.82-1.51-1.24-2.76-1.24c-1.89,0-3.18,0.64-3.87,1.92s-1.03,3.13-1.03,5.55v10.66h-6.18V29.89
		h4.72l0.83,2.9h0.34c0.49-0.78,1.09-1.42,1.81-1.9c0.72-0.49,1.53-0.84,2.41-1.07C176.8,29.58,177.71,29.46,178.66,29.46z"/>
	<path class="st2" d="M213.84,29.89v22.65h-4.74l-0.83-2.9h-0.32c-0.49,0.77-1.09,1.4-1.82,1.88c-0.73,0.49-1.53,0.84-2.41,1.07
		c-0.88,0.23-1.79,0.34-2.73,0.34c-1.62,0-3.03-0.29-4.23-0.86c-1.2-0.57-2.14-1.47-2.81-2.68c-0.67-1.22-1-2.8-1-4.74V29.89h6.18
		v13.23c0,1.62,0.29,2.84,0.87,3.67c0.58,0.82,1.51,1.24,2.78,1.24c1.26,0,2.24-0.29,2.96-0.86c0.72-0.57,1.22-1.42,1.51-2.53
		c0.29-1.11,0.44-2.47,0.44-4.08V29.89H213.84z"/>
	<path class="st2" d="M229.6,29.42c3.04,0,5.37,0.66,6.99,1.99c1.62,1.32,2.43,3.34,2.43,6.04v15.09h-4.31l-1.2-3.08h-0.16
		c-0.65,0.81-1.31,1.47-1.99,1.99s-1.45,0.89-2.33,1.13c-0.88,0.24-1.94,0.36-3.2,0.36c-1.34,0-2.54-0.26-3.6-0.77
		c-1.06-0.51-1.89-1.3-2.5-2.36c-0.61-1.06-0.91-2.41-0.91-4.04c0-2.4,0.84-4.18,2.53-5.32c1.69-1.14,4.22-1.77,7.6-1.89l3.93-0.12
		v-0.99c0-1.19-0.31-2.06-0.93-2.61c-0.62-0.55-1.49-0.83-2.59-0.83c-1.09,0-2.17,0.16-3.22,0.47c-1.05,0.31-2.11,0.7-3.16,1.17
		l-2.05-4.17c1.2-0.64,2.55-1.13,4.04-1.5C226.47,29.6,228.01,29.42,229.6,29.42z M232.89,42.04l-2.39,0.08
		c-2,0.05-3.39,0.41-4.16,1.07c-0.78,0.66-1.17,1.53-1.17,2.61c0,0.95,0.28,1.62,0.83,2.02c0.55,0.4,1.28,0.6,2.17,0.6
		c1.32,0,2.44-0.39,3.35-1.17c0.91-0.78,1.37-1.9,1.37-3.34V42.04z"/>
	<path class="st2" d="M251.56,52.53h-6.18V21.01h6.18V52.53z"/>
	<path class="st2" d="M275,52.53h-6.18V21.01H275V52.53z"/>
	<path class="st2" d="M290.82,29.46c2.09,0,3.9,0.4,5.41,1.2c1.51,0.8,2.68,1.97,3.5,3.49c0.82,1.53,1.24,3.39,1.24,5.59v3h-14.61
		c0.07,1.74,0.59,3.11,1.57,4.1c0.98,0.99,2.34,1.49,4.08,1.49c1.45,0,2.77-0.15,3.97-0.45c1.2-0.3,2.44-0.74,3.71-1.34v4.78
		c-1.12,0.55-2.29,0.96-3.52,1.22c-1.22,0.26-2.7,0.38-4.45,0.38c-2.27,0-4.28-0.42-6.03-1.26c-1.75-0.84-3.12-2.11-4.11-3.83
		c-0.99-1.71-1.49-3.88-1.49-6.48c0-2.65,0.45-4.85,1.35-6.61c0.9-1.76,2.15-3.09,3.76-3.97C286.82,29.9,288.69,29.46,290.82,29.46z
		 M290.86,33.86c-1.2,0-2.2,0.38-2.99,1.15c-0.79,0.77-1.25,1.98-1.37,3.63h8.67c-0.01-0.92-0.18-1.74-0.5-2.45
		c-0.32-0.72-0.79-1.28-1.42-1.7C292.64,34.07,291.83,33.86,290.86,33.86z"/>
	<path class="st2" d="M315.27,29.42c3.04,0,5.37,0.66,6.99,1.99c1.62,1.32,2.43,3.34,2.43,6.04v15.09h-4.31l-1.2-3.08h-0.16
		c-0.65,0.81-1.31,1.47-1.99,1.99s-1.45,0.89-2.33,1.13c-0.88,0.24-1.94,0.36-3.2,0.36c-1.34,0-2.54-0.26-3.6-0.77
		c-1.06-0.51-1.89-1.3-2.5-2.36c-0.61-1.06-0.91-2.41-0.91-4.04c0-2.4,0.84-4.18,2.53-5.32c1.69-1.14,4.22-1.77,7.6-1.89l3.93-0.12
		v-0.99c0-1.19-0.31-2.06-0.93-2.61C317,34.28,316.14,34,315.03,34c-1.09,0-2.17,0.16-3.22,0.47c-1.05,0.31-2.11,0.7-3.16,1.17
		l-2.05-4.17c1.2-0.64,2.55-1.13,4.04-1.5C312.14,29.6,313.68,29.42,315.27,29.42z M318.55,42.04l-2.39,0.08
		c-2,0.05-3.39,0.41-4.16,1.07c-0.78,0.66-1.17,1.53-1.17,2.61c0,0.95,0.28,1.62,0.83,2.02c0.55,0.4,1.28,0.6,2.17,0.6
		c1.32,0,2.44-0.39,3.35-1.17c0.91-0.78,1.37-1.9,1.37-3.34V42.04z"/>
	<path class="st2" d="M336.44,52.53l-8.63-22.65h6.46l4.38,12.9c0.24,0.76,0.44,1.55,0.58,2.39c0.14,0.84,0.24,1.59,0.29,2.25h0.16
		c0.04-0.72,0.14-1.48,0.29-2.29c0.15-0.81,0.36-1.59,0.62-2.35l4.36-12.9h6.46l-8.63,22.65H336.44z"/>
	<path class="st2" d="M363.99,29.46c2.09,0,3.9,0.4,5.41,1.2c1.51,0.8,2.68,1.97,3.5,3.49c0.82,1.53,1.24,3.39,1.24,5.59v3h-14.61
		c0.07,1.74,0.59,3.11,1.57,4.1c0.98,0.99,2.34,1.49,4.08,1.49c1.45,0,2.77-0.15,3.97-0.45c1.2-0.3,2.44-0.74,3.71-1.34v4.78
		c-1.12,0.55-2.29,0.96-3.52,1.22c-1.22,0.26-2.7,0.38-4.45,0.38c-2.27,0-4.28-0.42-6.03-1.26c-1.75-0.84-3.12-2.11-4.11-3.83
		c-0.99-1.71-1.49-3.88-1.49-6.48c0-2.65,0.45-4.85,1.35-6.61c0.9-1.76,2.15-3.09,3.76-3.97C359.99,29.9,361.86,29.46,363.99,29.46z
		 M364.03,33.86c-1.2,0-2.2,0.38-2.99,1.15c-0.79,0.77-1.25,1.98-1.37,3.63h8.67c-0.01-0.92-0.18-1.74-0.5-2.45
		c-0.32-0.72-0.79-1.28-1.42-1.7C365.8,34.07,365,33.86,364.03,33.86z"/>
	<path class="st2" d="M123.01,97.8c0.68,0,1.33-0.07,1.98-0.2c0.64-0.13,1.28-0.3,1.91-0.51v4.6c-0.66,0.3-1.48,0.54-2.46,0.74
		c-0.98,0.2-2.05,0.29-3.21,0.29c-1.35,0-2.56-0.22-3.64-0.66c-1.07-0.44-1.92-1.2-2.53-2.29c-0.61-1.09-0.92-2.6-0.92-4.55V84.31
		h-2.96V81.7l3.4-2.07l1.78-4.78h3.95v4.82h6.34v4.64h-6.34v10.92c0,0.86,0.25,1.51,0.74,1.93C121.55,97.59,122.2,97.8,123.01,97.8z
		"/>
	<path class="st2" d="M144.12,79.25c0.31,0,0.67,0.02,1.08,0.05c0.41,0.03,0.75,0.08,1,0.13l-0.47,5.79
		c-0.2-0.07-0.49-0.12-0.86-0.15c-0.37-0.03-0.69-0.05-0.96-0.05c-0.8,0-1.57,0.1-2.32,0.3c-0.75,0.2-1.42,0.53-2.02,0.98
		c-0.59,0.45-1.06,1.05-1.41,1.78c-0.35,0.74-0.52,1.64-0.52,2.7v11.53h-6.18V79.67h4.68l0.91,3.81h0.3c0.45-0.77,1-1.48,1.67-2.12
		c0.67-0.64,1.43-1.15,2.29-1.54C142.19,79.44,143.12,79.25,144.12,79.25z"/>
	<path class="st2" d="M159.6,79.2c3.04,0,5.37,0.66,6.99,1.99c1.62,1.32,2.43,3.34,2.43,6.04v15.09h-4.31l-1.2-3.08h-0.16
		c-0.65,0.81-1.31,1.47-1.99,1.99c-0.68,0.51-1.45,0.89-2.33,1.13c-0.88,0.24-1.94,0.36-3.2,0.36c-1.34,0-2.54-0.26-3.6-0.77
		c-1.06-0.51-1.89-1.3-2.5-2.36c-0.61-1.06-0.91-2.41-0.91-4.04c0-2.4,0.84-4.18,2.53-5.32c1.69-1.14,4.22-1.77,7.6-1.89l3.93-0.12
		v-0.99c0-1.19-0.31-2.06-0.93-2.61s-1.49-0.83-2.59-0.83c-1.09,0-2.17,0.16-3.22,0.47s-2.11,0.7-3.16,1.17l-2.05-4.17
		c1.2-0.64,2.55-1.13,4.04-1.5C156.46,79.39,158,79.2,159.6,79.2z M162.88,91.82l-2.39,0.08c-2,0.05-3.39,0.41-4.16,1.07
		c-0.78,0.66-1.17,1.53-1.17,2.61c0,0.95,0.28,1.62,0.83,2.02c0.55,0.4,1.28,0.6,2.17,0.6c1.32,0,2.44-0.39,3.35-1.17
		c0.91-0.78,1.37-1.9,1.37-3.34V91.82z"/>
	<path class="st2" d="M184.57,102.72c-2.24,0-4.15-0.41-5.73-1.23c-1.58-0.82-2.78-2.08-3.61-3.8S174,93.79,174,91.12
		c0-2.77,0.47-5.03,1.41-6.78c0.94-1.75,2.24-3.04,3.91-3.86c1.67-0.82,3.6-1.24,5.8-1.24c1.57,0,2.92,0.15,4.06,0.46
		c1.14,0.3,2.14,0.67,2.99,1.08l-1.82,4.78c-0.97-0.39-1.88-0.71-2.71-0.96c-0.84-0.25-1.67-0.37-2.51-0.37
		c-1.08,0-1.98,0.25-2.69,0.76s-1.25,1.27-1.6,2.28c-0.35,1.01-0.53,2.28-0.53,3.81c0,1.5,0.19,2.74,0.57,3.73
		c0.38,0.99,0.92,1.72,1.64,2.2c0.72,0.48,1.59,0.72,2.61,0.72c1.28,0,2.42-0.17,3.42-0.52c1-0.34,1.97-0.83,2.92-1.45v5.29
		c-0.95,0.59-1.93,1.02-2.97,1.29C187.46,102.59,186.15,102.72,184.57,102.72z"/>
	<path class="st2" d="M202.89,70.8v14.1c0,0.85-0.03,1.7-0.1,2.55c-0.07,0.85-0.14,1.7-0.22,2.55h0.08
		c0.42-0.59,0.85-1.18,1.29-1.76c0.44-0.58,0.91-1.14,1.41-1.68l6.34-6.89h6.97l-8.99,9.82l9.54,12.82h-7.13l-6.52-9.18l-2.65,2.13
		v7.05h-6.18V70.8H202.89z"/>
	<path class="st2" d="M231.77,79.25c2.09,0,3.9,0.4,5.41,1.2c1.51,0.8,2.68,1.97,3.5,3.49s1.24,3.39,1.24,5.59v3h-14.61
		c0.07,1.74,0.59,3.11,1.57,4.1c0.98,0.99,2.34,1.49,4.08,1.49c1.45,0,2.77-0.15,3.97-0.45c1.2-0.3,2.44-0.74,3.71-1.34v4.78
		c-1.12,0.55-2.29,0.96-3.52,1.22c-1.22,0.26-2.7,0.38-4.45,0.38c-2.27,0-4.28-0.42-6.03-1.26c-1.75-0.84-3.12-2.11-4.11-3.83
		c-0.99-1.71-1.49-3.88-1.49-6.48c0-2.65,0.45-4.85,1.35-6.61c0.9-1.76,2.15-3.09,3.76-3.97C227.77,79.69,229.64,79.25,231.77,79.25
		z M231.81,83.64c-1.2,0-2.2,0.38-2.99,1.15c-0.79,0.77-1.25,1.98-1.37,3.63h8.67c-0.01-0.92-0.18-1.74-0.5-2.45
		c-0.32-0.72-0.79-1.28-1.42-1.7C233.59,83.85,232.78,83.64,231.81,83.64z"/>
	<path class="st2" d="M259.59,79.25c0.31,0,0.67,0.02,1.08,0.05c0.41,0.03,0.75,0.08,1,0.13l-0.47,5.79
		c-0.2-0.07-0.49-0.12-0.86-0.15c-0.37-0.03-0.69-0.05-0.96-0.05c-0.8,0-1.57,0.1-2.32,0.3c-0.75,0.2-1.42,0.53-2.02,0.98
		c-0.59,0.45-1.06,1.05-1.41,1.78c-0.35,0.74-0.52,1.64-0.52,2.7v11.53h-6.18V79.67h4.68l0.91,3.81h0.3c0.45-0.77,1-1.48,1.67-2.12
		c0.67-0.64,1.43-1.15,2.29-1.54C257.66,79.44,258.59,79.25,259.59,79.25z"/>
</g>
</svg>
