<?xml version="1.0" encoding="utf-8"?>
<!-- Generator: Adobe Illustrator 26.0.1, SVG Export Plug-In . SVG Version: 6.00 Build 0)  -->
<svg version="1.1" id="Layer_1" xmlns="http://www.w3.org/2000/svg" xmlns:xlink="http://www.w3.org/1999/xlink" x="0px" y="0px"
	 viewBox="0 0 195.13 112" style="enable-background:new 0 0 195.13 112;" xml:space="preserve">
<style type="text/css">
	.st0{fill:none;stroke:#222222;stroke-miterlimit:10;}
	.st1{fill:#222222;stroke:#222222;stroke-miterlimit:10;}
	.st2{fill:#222222;}
	.st3{fill:#FFFFFF;}
</style>
<g>
	<g>
		<g>
			<rect x="45" y="86.87" class="st0" width="10" height="10"/>
		</g>
		<g>
			<rect x="35" y="86.87" class="st1" width="10" height="10"/>
		</g>
		<g>
			<rect x="25" y="86.87" class="st0" width="10" height="10"/>
		</g>
		<g>
			<rect x="15" y="86.87" class="st0" width="10" height="10"/>
		</g>
		<g>
			<rect x="75" y="76.87" class="st0" width="10" height="10"/>
		</g>
		<g>
			<rect x="65" y="76.87" class="st0" width="10" height="10"/>
		</g>
		<g>
			<rect x="55" y="76.87" class="st0" width="10" height="10"/>
		</g>
		<g>
			<rect x="45" y="76.87" class="st1" width="10" height="10"/>
		</g>
		<g>
			<rect x="35" y="76.87" class="st0" width="10" height="10"/>
		</g>
		<g>
			<rect x="25" y="76.87" class="st0" width="10" height="10"/>
		</g>
		<g>
			<rect x="15" y="76.87" class="st1" width="10" height="10"/>
		</g>
		<g>
			<rect x="75" y="66.87" class="st1" width="10" height="10"/>
		</g>
		<g>
			<rect x="65" y="66.87" class="st1" width="10" height="10"/>
		</g>
		<g>
			<rect x="55" y="66.87" class="st1" width="10" height="10"/>
		</g>
		<g>
			<rect x="45" y="66.87" class="st1" width="10" height="10"/>
		</g>
		<g>
			<rect x="35" y="66.87" class="st1" width="10" height="10"/>
		</g>
		<g>
			<rect x="25" y="66.87" class="st1" width="10" height="10"/>
		</g>
		<g>
			<rect x="15" y="66.87" class="st0" width="10" height="10"/>
		</g>
		<g>
			<rect x="75" y="56.87" class="st0" width="10" height="10"/>
		</g>
		<g>
			<rect x="65" y="56.87" class="st0" width="10" height="10"/>
		</g>
		<g>
			<rect x="55" y="56.87" class="st0" width="10" height="10"/>
		</g>
		<g>
			<rect x="45" y="56.87" class="st1" width="10" height="10"/>
		</g>
		<g>
			<rect x="35" y="56.87" class="st0" width="10" height="10"/>
		</g>
		<g>
			<rect x="25" y="56.87" class="st0" width="10" height="10"/>
		</g>
		<g>
			<rect x="15" y="56.87" class="st1" width="10" height="10"/>
		</g>
		<g>
			<rect x="75" y="46.87" class="st0" width="10" height="10"/>
		</g>
		<g>
			<rect x="65" y="46.87" class="st0" width="10" height="10"/>
		</g>
		<g>
			<rect x="55" y="46.87" class="st0" width="10" height="10"/>
		</g>
		<g>
			<rect x="45" y="46.87" class="st0" width="10" height="10"/>
		</g>
		<g>
			<rect x="35" y="46.87" class="st1" width="10" height="10"/>
		</g>
		<g>
			<rect x="25" y="46.87" class="st0" width="10" height="10"/>
		</g>
	</g>
	<path class="st0" d="M85,106.87H15c-5.52,0-10-4.48-10-10v-70c0-5.52,4.48-10,10-10h70c5.52,0,10,4.48,10,10v70
		C95,102.39,90.52,106.87,85,106.87z"/>
	<path class="st2" d="M85,16.87H15c-5.52,0-10,4.48-10,10v10h90v-10C95,21.35,90.52,16.87,85,16.87z"/>
	<circle class="st3" cx="65" cy="26.66" r="5"/>
	<circle class="st3" cx="35" cy="26.66" r="5"/>
	<path class="st2" d="M35,4.57c-1.38,0-2.5,1.12-2.5,2.5h0v20h0.02c0.11,1.28,1.17,2.29,2.48,2.29c1.31,0,2.37-1.01,2.48-2.29h0.02
		v-20c0,0,0,0,0,0C37.5,5.69,36.38,4.57,35,4.57z"/>
	<path class="st2" d="M67.5,7.07c0-1.38-1.12-2.5-2.5-2.5c-1.38,0-2.5,1.12-2.5,2.5h0v20h0.02c0.11,1.28,1.17,2.29,2.48,2.29
		c1.31,0,2.37-1.01,2.48-2.29h0.02L67.5,7.07C67.5,7.08,67.5,7.07,67.5,7.07z"/>
	<g>
		<path class="st2" d="M118.98,47.02c1.24,0,2.2,0.27,2.86,0.81c0.66,0.54,0.99,1.36,0.99,2.47v6.17h-1.76l-0.49-1.26h-0.07
			c-0.26,0.33-0.54,0.6-0.81,0.81s-0.59,0.36-0.95,0.46c-0.36,0.1-0.8,0.15-1.31,0.15c-0.55,0-1.04-0.11-1.47-0.32
			s-0.77-0.53-1.02-0.96c-0.25-0.43-0.37-0.98-0.37-1.65c0-0.98,0.34-1.71,1.04-2.17c0.69-0.47,1.73-0.72,3.11-0.77l1.61-0.05V50.3
			c0-0.49-0.13-0.84-0.38-1.07s-0.61-0.34-1.06-0.34c-0.45,0-0.89,0.06-1.32,0.19s-0.86,0.29-1.29,0.48l-0.84-1.71
			c0.49-0.26,1.04-0.46,1.65-0.61S118.33,47.02,118.98,47.02z M120.32,52.18l-0.98,0.03c-0.82,0.02-1.38,0.17-1.7,0.44
			s-0.48,0.63-0.48,1.07c0,0.39,0.11,0.66,0.34,0.82s0.52,0.24,0.89,0.24c0.54,0,1-0.16,1.37-0.48c0.37-0.32,0.56-0.78,0.56-1.37
			V52.18z"/>
		<path class="st2" d="M130.69,47.04c0.99,0,1.78,0.27,2.39,0.81c0.6,0.54,0.9,1.4,0.9,2.59v6.04h-2.53v-5.41
			c0-0.66-0.12-1.16-0.36-1.5s-0.62-0.51-1.13-0.51c-0.77,0-1.3,0.26-1.58,0.79c-0.28,0.53-0.42,1.28-0.42,2.27v4.36h-2.53v-9.26
			h1.93l0.34,1.18h0.14c0.2-0.32,0.45-0.58,0.74-0.78c0.3-0.2,0.62-0.35,0.99-0.44C129.93,47.09,130.3,47.04,130.69,47.04z"/>
		<path class="st2" d="M141.84,47.04c0.99,0,1.78,0.27,2.39,0.81c0.6,0.54,0.9,1.4,0.9,2.59v6.04h-2.53v-5.41
			c0-0.66-0.12-1.16-0.36-1.5s-0.62-0.51-1.13-0.51c-0.77,0-1.3,0.26-1.58,0.79c-0.28,0.53-0.42,1.28-0.42,2.27v4.36h-2.53v-9.26
			h1.93l0.34,1.18h0.14c0.2-0.32,0.45-0.58,0.74-0.78c0.3-0.2,0.62-0.35,0.99-0.44C141.08,47.09,141.45,47.04,141.84,47.04z"/>
		<path class="st2" d="M156.23,47.21v9.26h-1.94l-0.34-1.18h-0.13c-0.2,0.31-0.45,0.57-0.75,0.77c-0.3,0.2-0.63,0.34-0.99,0.44
			c-0.36,0.09-0.73,0.14-1.12,0.14c-0.66,0-1.24-0.12-1.73-0.35c-0.49-0.23-0.87-0.6-1.15-1.1s-0.41-1.14-0.41-1.94v-6.04h2.53v5.41
			c0,0.66,0.12,1.16,0.36,1.5c0.24,0.34,0.62,0.5,1.13,0.5c0.51,0,0.92-0.12,1.21-0.35c0.29-0.23,0.5-0.58,0.62-1.04
			c0.12-0.46,0.18-1.01,0.18-1.67v-4.36H156.23z"/>
		<path class="st2" d="M162.67,47.02c1.24,0,2.2,0.27,2.86,0.81c0.66,0.54,0.99,1.36,0.99,2.47v6.17h-1.76l-0.49-1.26h-0.07
			c-0.26,0.33-0.54,0.6-0.81,0.81s-0.59,0.36-0.95,0.46c-0.36,0.1-0.79,0.15-1.31,0.15c-0.55,0-1.04-0.11-1.47-0.32
			s-0.77-0.53-1.02-0.96c-0.25-0.43-0.37-0.98-0.37-1.65c0-0.98,0.35-1.71,1.04-2.17c0.69-0.47,1.73-0.72,3.11-0.77l1.61-0.05V50.3
			c0-0.49-0.13-0.84-0.38-1.07s-0.61-0.34-1.06-0.34c-0.45,0-0.89,0.06-1.32,0.19c-0.43,0.13-0.86,0.29-1.29,0.48l-0.84-1.71
			c0.49-0.26,1.04-0.46,1.65-0.61S162.02,47.02,162.67,47.02z M164.01,52.18l-0.98,0.03c-0.82,0.02-1.38,0.17-1.7,0.44
			s-0.48,0.63-0.48,1.07c0,0.39,0.11,0.66,0.34,0.82s0.52,0.24,0.89,0.24c0.54,0,1-0.16,1.37-0.48c0.37-0.32,0.56-0.78,0.56-1.37
			V52.18z"/>
		<path class="st2" d="M171.65,56.47h-2.53V43.58h2.53V56.47z"/>
		<path class="st2" d="M117.71,76.83h-2.53V63.94h2.53V76.83z"/>
		<path class="st2" d="M124.18,67.4c0.86,0,1.59,0.16,2.21,0.49c0.62,0.33,1.1,0.8,1.43,1.43s0.51,1.39,0.51,2.29v1.23h-5.97
			c0.03,0.71,0.24,1.27,0.64,1.68c0.4,0.41,0.96,0.61,1.67,0.61c0.59,0,1.13-0.06,1.62-0.18c0.49-0.12,1-0.3,1.52-0.55v1.96
			c-0.46,0.23-0.94,0.39-1.44,0.5c-0.5,0.11-1.11,0.16-1.82,0.16c-0.93,0-1.75-0.17-2.46-0.51c-0.71-0.34-1.28-0.86-1.68-1.57
			c-0.41-0.7-0.61-1.58-0.61-2.65c0-1.08,0.18-1.98,0.55-2.7s0.88-1.26,1.54-1.62C122.54,67.58,123.31,67.4,124.18,67.4z
			 M124.2,69.19c-0.49,0-0.9,0.16-1.22,0.47s-0.51,0.81-0.56,1.48h3.55c-0.01-0.38-0.07-0.71-0.2-1s-0.32-0.52-0.58-0.7
			C124.92,69.28,124.59,69.19,124.2,69.19z"/>
		<path class="st2" d="M134.18,67.38c1.24,0,2.19,0.27,2.86,0.81s0.99,1.36,0.99,2.47v6.17h-1.76l-0.49-1.26h-0.07
			c-0.27,0.33-0.54,0.6-0.81,0.81c-0.28,0.21-0.59,0.36-0.95,0.46c-0.36,0.1-0.79,0.15-1.31,0.15c-0.55,0-1.04-0.11-1.47-0.32
			s-0.77-0.53-1.02-0.96c-0.25-0.43-0.37-0.98-0.37-1.65c0-0.98,0.35-1.71,1.04-2.17c0.69-0.47,1.73-0.72,3.11-0.77l1.61-0.05v-0.41
			c0-0.49-0.13-0.84-0.38-1.07c-0.25-0.23-0.61-0.34-1.06-0.34c-0.45,0-0.89,0.06-1.32,0.19s-0.86,0.29-1.29,0.48l-0.84-1.71
			c0.49-0.26,1.04-0.46,1.65-0.61C132.89,67.45,133.53,67.38,134.18,67.38z M135.52,72.54l-0.98,0.03c-0.82,0.02-1.38,0.17-1.7,0.44
			s-0.48,0.63-0.48,1.07c0,0.39,0.11,0.66,0.34,0.82s0.52,0.24,0.89,0.24c0.54,0,1-0.16,1.37-0.48c0.37-0.32,0.56-0.78,0.56-1.37
			V72.54z"/>
		<path class="st2" d="M142.83,76.83l-3.53-9.26h2.64l1.79,5.28c0.1,0.31,0.18,0.63,0.24,0.98s0.1,0.65,0.12,0.92h0.07
			c0.02-0.29,0.06-0.61,0.12-0.94s0.15-0.65,0.25-0.96l1.78-5.28h2.64l-3.53,9.26H142.83z"/>
		<path class="st2" d="M154.1,67.4c0.86,0,1.59,0.16,2.21,0.49c0.62,0.33,1.1,0.8,1.43,1.43c0.34,0.62,0.5,1.39,0.5,2.29v1.23h-5.97
			c0.03,0.71,0.24,1.27,0.64,1.68c0.4,0.41,0.96,0.61,1.67,0.61c0.59,0,1.13-0.06,1.62-0.18c0.49-0.12,1-0.3,1.52-0.55v1.96
			c-0.46,0.23-0.94,0.39-1.44,0.5c-0.5,0.11-1.11,0.16-1.82,0.16c-0.93,0-1.75-0.17-2.46-0.51c-0.71-0.34-1.28-0.86-1.68-1.57
			s-0.61-1.58-0.61-2.65c0-1.08,0.18-1.98,0.55-2.7s0.88-1.26,1.54-1.62C152.46,67.58,153.23,67.4,154.1,67.4z M154.12,69.19
			c-0.49,0-0.9,0.16-1.22,0.47s-0.51,0.81-0.56,1.48h3.54c-0.01-0.38-0.07-0.71-0.2-1c-0.13-0.29-0.32-0.52-0.58-0.7
			C154.84,69.28,154.51,69.19,154.12,69.19z"/>
		<path class="st2" d="M119.08,95.34c0.28,0,0.55-0.03,0.81-0.08c0.26-0.06,0.52-0.12,0.78-0.21v1.88c-0.27,0.12-0.61,0.22-1.01,0.3
			s-0.84,0.12-1.31,0.12c-0.55,0-1.05-0.09-1.49-0.27c-0.44-0.18-0.79-0.49-1.04-0.94c-0.25-0.44-0.38-1.06-0.38-1.86v-4.46h-1.21
			v-1.07l1.39-0.84l0.73-1.96h1.62v1.97h2.59v1.9h-2.59v4.46c0,0.35,0.1,0.62,0.3,0.79C118.49,95.25,118.75,95.34,119.08,95.34z"/>
		<path class="st2" d="M127.72,87.75c0.13,0,0.27,0.01,0.44,0.02c0.17,0.01,0.3,0.03,0.41,0.05l-0.19,2.37
			c-0.08-0.03-0.2-0.05-0.35-0.06c-0.15-0.01-0.28-0.02-0.39-0.02c-0.33,0-0.64,0.04-0.95,0.12c-0.31,0.08-0.58,0.22-0.82,0.4
			c-0.24,0.18-0.44,0.43-0.58,0.73c-0.14,0.3-0.21,0.67-0.21,1.11v4.71h-2.53v-9.26h1.91l0.37,1.56h0.12
			c0.18-0.32,0.41-0.6,0.68-0.87c0.27-0.26,0.58-0.47,0.94-0.63C126.93,87.83,127.31,87.75,127.72,87.75z"/>
		<path class="st2" d="M134.04,87.74c1.24,0,2.2,0.27,2.86,0.81c0.66,0.54,0.99,1.36,0.99,2.47v6.17h-1.76l-0.49-1.26h-0.07
			c-0.26,0.33-0.54,0.6-0.81,0.81s-0.59,0.36-0.95,0.46c-0.36,0.1-0.8,0.15-1.31,0.15c-0.55,0-1.04-0.11-1.47-0.32
			s-0.77-0.53-1.02-0.96c-0.25-0.43-0.37-0.98-0.37-1.65c0-0.98,0.34-1.71,1.04-2.17c0.69-0.47,1.73-0.72,3.11-0.77l1.61-0.05v-0.41
			c0-0.49-0.13-0.84-0.38-1.07s-0.61-0.34-1.06-0.34c-0.45,0-0.89,0.06-1.32,0.19s-0.86,0.29-1.29,0.48l-0.84-1.71
			c0.49-0.26,1.04-0.46,1.65-0.61S133.39,87.74,134.04,87.74z M135.39,92.9l-0.98,0.03c-0.82,0.02-1.38,0.17-1.7,0.44
			s-0.48,0.63-0.48,1.07c0,0.39,0.11,0.66,0.34,0.82s0.52,0.24,0.89,0.24c0.54,0,1-0.16,1.37-0.48c0.37-0.32,0.56-0.78,0.56-1.37
			V92.9z"/>
		<path class="st2" d="M144.26,97.35c-0.92,0-1.7-0.17-2.34-0.5c-0.65-0.33-1.14-0.85-1.47-1.55c-0.34-0.7-0.51-1.6-0.51-2.69
			c0-1.13,0.19-2.06,0.58-2.77s0.92-1.24,1.6-1.58c0.68-0.34,1.47-0.5,2.37-0.5c0.64,0,1.19,0.06,1.66,0.19
			c0.47,0.12,0.87,0.27,1.22,0.44l-0.75,1.96c-0.4-0.16-0.77-0.29-1.11-0.39c-0.34-0.1-0.69-0.15-1.03-0.15
			c-0.44,0-0.81,0.1-1.1,0.31c-0.29,0.21-0.51,0.52-0.65,0.93c-0.14,0.41-0.22,0.93-0.22,1.56c0,0.61,0.08,1.12,0.23,1.52
			c0.15,0.4,0.38,0.7,0.67,0.9c0.29,0.2,0.65,0.29,1.07,0.29c0.52,0,0.99-0.07,1.4-0.21c0.41-0.14,0.81-0.34,1.19-0.59v2.16
			c-0.39,0.24-0.79,0.42-1.21,0.53C145.44,97.3,144.9,97.35,144.26,97.35z"/>
		<path class="st2" d="M151.75,84.3v5.76c0,0.35-0.01,0.7-0.04,1.04s-0.06,0.7-0.09,1.04h0.03c0.17-0.24,0.35-0.48,0.53-0.72
			s0.37-0.47,0.58-0.69l2.59-2.82h2.85l-3.68,4.02l3.9,5.24h-2.92l-2.67-3.75l-1.09,0.87v2.88h-2.53V84.3H151.75z"/>
		<path class="st2" d="M163.56,87.75c0.86,0,1.59,0.16,2.21,0.49c0.62,0.33,1.1,0.8,1.43,1.43c0.34,0.62,0.5,1.39,0.5,2.29v1.23
			h-5.97c0.03,0.71,0.24,1.27,0.64,1.68c0.4,0.41,0.96,0.61,1.67,0.61c0.59,0,1.13-0.06,1.62-0.18c0.49-0.12,1-0.3,1.52-0.55v1.96
			c-0.46,0.23-0.94,0.39-1.44,0.5c-0.5,0.11-1.11,0.16-1.82,0.16c-0.93,0-1.75-0.17-2.46-0.51c-0.72-0.34-1.28-0.86-1.68-1.57
			c-0.41-0.7-0.61-1.58-0.61-2.65c0-1.08,0.18-1.98,0.55-2.7s0.88-1.26,1.54-1.62C161.92,87.93,162.69,87.75,163.56,87.75z
			 M163.58,89.55c-0.49,0-0.9,0.16-1.22,0.47s-0.51,0.81-0.56,1.48h3.54c-0.01-0.38-0.07-0.71-0.2-1s-0.32-0.52-0.58-0.7
			C164.3,89.64,163.97,89.55,163.58,89.55z"/>
		<path class="st2" d="M174.93,87.75c0.13,0,0.27,0.01,0.44,0.02c0.17,0.01,0.3,0.03,0.41,0.05l-0.19,2.37
			c-0.08-0.03-0.2-0.05-0.35-0.06c-0.15-0.01-0.28-0.02-0.39-0.02c-0.33,0-0.64,0.04-0.95,0.12c-0.31,0.08-0.58,0.22-0.82,0.4
			c-0.24,0.18-0.43,0.43-0.58,0.73c-0.14,0.3-0.21,0.67-0.21,1.11v4.71h-2.53v-9.26h1.91l0.37,1.56h0.12
			c0.18-0.32,0.41-0.6,0.68-0.87c0.27-0.26,0.59-0.47,0.94-0.63C174.14,87.83,174.52,87.75,174.93,87.75z"/>
	</g>
</g>
</svg>
