<?xml version="1.0" encoding="utf-8"?>
<!-- Generator: Adobe Illustrator 26.0.1, SVG Export Plug-In . SVG Version: 6.00 Build 0)  -->
<svg version="1.1" id="Layer_1" xmlns="http://www.w3.org/2000/svg" xmlns:xlink="http://www.w3.org/1999/xlink" x="0px" y="0px"
	 viewBox="0 0 100 200" style="enable-background:new 0 0 100 200;" xml:space="preserve">
<style type="text/css">
	.st0{fill:none;stroke:#222222;stroke-miterlimit:10;}
	.st1{fill:#222222;stroke:#222222;stroke-miterlimit:10;}
	.st2{fill:#222222;}
	.st3{fill:#FFFFFF;}
</style>
<g>
	<g>
		<g>
			<g>
				<rect x="45" y="172.5" class="st0" width="10" height="10"/>
			</g>
			<g>
				<rect x="35" y="172.5" class="st1" width="10" height="10"/>
			</g>
			<g>
				<rect x="25" y="172.5" class="st0" width="10" height="10"/>
			</g>
			<g>
				<rect x="15" y="172.5" class="st0" width="10" height="10"/>
			</g>
			<g>
				<rect x="75" y="162.5" class="st0" width="10" height="10"/>
			</g>
			<g>
				<rect x="65" y="162.5" class="st0" width="10" height="10"/>
			</g>
			<g>
				<rect x="55" y="162.5" class="st0" width="10" height="10"/>
			</g>
			<g>
				<rect x="45" y="162.5" class="st1" width="10" height="10"/>
			</g>
			<g>
				<rect x="35" y="162.5" class="st0" width="10" height="10"/>
			</g>
			<g>
				<rect x="25" y="162.5" class="st0" width="10" height="10"/>
			</g>
			<g>
				<rect x="15" y="162.5" class="st1" width="10" height="10"/>
			</g>
			<g>
				<rect x="75" y="152.5" class="st1" width="10" height="10"/>
			</g>
			<g>
				<rect x="65" y="152.5" class="st1" width="10" height="10"/>
			</g>
			<g>
				<rect x="55" y="152.5" class="st1" width="10" height="10"/>
			</g>
			<g>
				<rect x="45" y="152.5" class="st1" width="10" height="10"/>
			</g>
			<g>
				<rect x="35" y="152.5" class="st1" width="10" height="10"/>
			</g>
			<g>
				<rect x="25" y="152.5" class="st1" width="10" height="10"/>
			</g>
			<g>
				<rect x="15" y="152.5" class="st0" width="10" height="10"/>
			</g>
			<g>
				<rect x="75" y="142.5" class="st0" width="10" height="10"/>
			</g>
			<g>
				<rect x="65" y="142.5" class="st0" width="10" height="10"/>
			</g>
			<g>
				<rect x="55" y="142.5" class="st0" width="10" height="10"/>
			</g>
			<g>
				<rect x="45" y="142.5" class="st1" width="10" height="10"/>
			</g>
			<g>
				<rect x="35" y="142.5" class="st0" width="10" height="10"/>
			</g>
			<g>
				<rect x="25" y="142.5" class="st0" width="10" height="10"/>
			</g>
			<g>
				<rect x="15" y="142.5" class="st1" width="10" height="10"/>
			</g>
			<g>
				<rect x="75" y="132.5" class="st0" width="10" height="10"/>
			</g>
			<g>
				<rect x="65" y="132.5" class="st0" width="10" height="10"/>
			</g>
			<g>
				<rect x="55" y="132.5" class="st0" width="10" height="10"/>
			</g>
			<g>
				<rect x="45" y="132.5" class="st0" width="10" height="10"/>
			</g>
			<g>
				<rect x="35" y="132.5" class="st1" width="10" height="10"/>
			</g>
			<g>
				<rect x="25" y="132.5" class="st0" width="10" height="10"/>
			</g>
		</g>
		<path class="st0" d="M85,192.5H15c-5.52,0-10-4.48-10-10v-70c0-5.52,4.48-10,10-10h70c5.52,0,10,4.48,10,10v70
			C95,188.02,90.52,192.5,85,192.5z"/>
		<path class="st2" d="M85,102.5H15c-5.52,0-10,4.48-10,10v10h90v-10C95,106.98,90.52,102.5,85,102.5z"/>
	</g>
	<circle class="st3" cx="65" cy="112.29" r="5"/>
	<circle class="st2" cx="65" cy="112.5" r="2.5"/>
	<circle class="st3" cx="35" cy="112.29" r="5"/>
	<circle class="st2" cx="35" cy="112.5" r="2.5"/>
	<g>
		<rect x="62.5" y="92.71" class="st2" width="5" height="20"/>
		<rect x="32.5" y="92.71" class="st2" width="5" height="20"/>
		<path class="st0" d="M15,7.5h70c5.52,0,10,4.48,10,10v70c0,5.52-4.48,10-10,10H15c-5.52,0-10-4.48-10-10v-70
			C5,11.98,9.48,7.5,15,7.5z"/>
		<path class="st2" d="M15,97.5h70c5.52,0,10-4.48,10-10v-10H5v10C5,93.02,9.48,97.5,15,97.5z"/>
		<circle class="st3" cx="35" cy="87.71" r="5"/>
		<rect x="32.5" y="87.5" transform="matrix(-1 -1.224647e-16 1.224647e-16 -1 70.0001 195)" class="st2" width="5" height="20"/>
		<circle class="st2" cx="35" cy="87.5" r="2.5"/>
		<circle class="st3" cx="65" cy="87.71" r="5"/>
		<rect x="62.5" y="87.5" transform="matrix(-1 -1.224647e-16 1.224647e-16 -1 130.0001 195)" class="st2" width="5" height="20"/>
		<circle class="st2" cx="65" cy="87.5" r="2.5"/>
		<g>
			<path class="st2" d="M23.98,18.57c1.24,0,2.19,0.27,2.86,0.81c0.66,0.54,0.99,1.36,0.99,2.47v6.17h-1.76l-0.49-1.26h-0.07
				c-0.27,0.33-0.54,0.6-0.81,0.81c-0.28,0.21-0.59,0.36-0.95,0.46s-0.8,0.15-1.31,0.15c-0.55,0-1.04-0.11-1.47-0.32
				s-0.77-0.53-1.02-0.96s-0.37-0.98-0.37-1.65c0-0.98,0.35-1.71,1.04-2.17c0.69-0.47,1.73-0.72,3.11-0.77l1.61-0.05v-0.41
				c0-0.49-0.13-0.84-0.38-1.07c-0.25-0.23-0.61-0.34-1.06-0.34c-0.45,0-0.89,0.06-1.32,0.19s-0.86,0.29-1.29,0.48l-0.84-1.71
				c0.49-0.26,1.04-0.46,1.65-0.61C22.7,18.64,23.33,18.57,23.98,18.57z M25.32,23.73l-0.98,0.03c-0.82,0.02-1.38,0.17-1.7,0.44
				s-0.48,0.63-0.48,1.07c0,0.39,0.11,0.66,0.34,0.82s0.52,0.24,0.89,0.24c0.54,0,1-0.16,1.37-0.48s0.56-0.78,0.56-1.37V23.73z"/>
			<path class="st2" d="M35.69,18.59c0.99,0,1.78,0.27,2.39,0.81s0.9,1.4,0.9,2.59v6.04h-2.53v-5.41c0-0.66-0.12-1.16-0.36-1.5
				s-0.62-0.51-1.13-0.51c-0.77,0-1.3,0.26-1.58,0.79c-0.28,0.53-0.42,1.28-0.42,2.27v4.36h-2.53v-9.26h1.93l0.34,1.18h0.14
				c0.2-0.32,0.45-0.58,0.74-0.78c0.3-0.2,0.62-0.35,0.99-0.44S35.3,18.59,35.69,18.59z"/>
			<path class="st2" d="M46.84,18.59c0.99,0,1.78,0.27,2.39,0.81s0.9,1.4,0.9,2.59v6.04H47.6v-5.41c0-0.66-0.12-1.16-0.36-1.5
				s-0.62-0.51-1.13-0.51c-0.77,0-1.3,0.26-1.58,0.79c-0.28,0.53-0.42,1.28-0.42,2.27v4.36h-2.53v-9.26h1.93l0.34,1.18h0.14
				c0.2-0.32,0.45-0.58,0.74-0.78c0.3-0.2,0.62-0.35,0.99-0.44S46.45,18.59,46.84,18.59z"/>
			<path class="st2" d="M61.23,18.76v9.26h-1.94l-0.34-1.18h-0.13c-0.2,0.31-0.45,0.57-0.75,0.77c-0.3,0.2-0.63,0.34-0.99,0.44
				c-0.36,0.09-0.73,0.14-1.12,0.14c-0.66,0-1.24-0.12-1.73-0.35s-0.87-0.6-1.15-1.1s-0.41-1.14-0.41-1.94v-6.04h2.53v5.41
				c0,0.66,0.12,1.16,0.36,1.5s0.62,0.5,1.13,0.5c0.51,0,0.92-0.12,1.21-0.35c0.29-0.23,0.5-0.58,0.62-1.04
				c0.12-0.46,0.18-1.01,0.18-1.67v-4.36H61.23z"/>
			<path class="st2" d="M67.67,18.57c1.24,0,2.2,0.27,2.86,0.81c0.66,0.54,0.99,1.36,0.99,2.47v6.17h-1.76l-0.49-1.26h-0.07
				c-0.26,0.33-0.54,0.6-0.81,0.81s-0.59,0.36-0.95,0.46c-0.36,0.1-0.79,0.15-1.31,0.15c-0.55,0-1.04-0.11-1.47-0.32
				s-0.77-0.53-1.02-0.96c-0.25-0.43-0.37-0.98-0.37-1.65c0-0.98,0.35-1.71,1.04-2.17c0.69-0.47,1.73-0.72,3.11-0.77l1.61-0.05
				v-0.41c0-0.49-0.13-0.84-0.38-1.07s-0.61-0.34-1.06-0.34c-0.45,0-0.89,0.06-1.32,0.19c-0.43,0.13-0.86,0.29-1.29,0.48l-0.84-1.71
				c0.49-0.26,1.04-0.46,1.65-0.61S67.02,18.57,67.67,18.57z M69.01,23.73l-0.98,0.03c-0.82,0.02-1.38,0.17-1.7,0.44
				s-0.48,0.63-0.48,1.07c0,0.39,0.11,0.66,0.34,0.82s0.52,0.24,0.89,0.24c0.54,0,1-0.16,1.37-0.48c0.37-0.32,0.56-0.78,0.56-1.37
				V23.73z"/>
			<path class="st2" d="M76.65,28.02h-2.53V15.13h2.53V28.02z"/>
			<path class="st2" d="M22.71,48.38h-2.53V35.49h2.53V48.38z"/>
			<path class="st2" d="M29.18,38.94c0.86,0,1.59,0.16,2.21,0.49c0.62,0.33,1.1,0.8,1.43,1.43s0.51,1.39,0.51,2.29v1.23h-5.97
				c0.03,0.71,0.24,1.27,0.64,1.68c0.4,0.41,0.96,0.61,1.67,0.61c0.59,0,1.13-0.06,1.62-0.18c0.49-0.12,1-0.3,1.52-0.55v1.96
				c-0.46,0.23-0.94,0.39-1.44,0.5c-0.5,0.11-1.11,0.16-1.82,0.16c-0.93,0-1.75-0.17-2.46-0.51c-0.71-0.34-1.28-0.86-1.68-1.57
				c-0.41-0.7-0.61-1.58-0.61-2.65c0-1.08,0.18-1.98,0.55-2.7s0.88-1.26,1.54-1.62C27.54,39.12,28.31,38.94,29.18,38.94z
				 M29.2,40.74c-0.49,0-0.9,0.16-1.22,0.47c-0.32,0.31-0.51,0.81-0.56,1.48h3.55c-0.01-0.38-0.07-0.71-0.2-1
				c-0.13-0.29-0.32-0.52-0.58-0.7C29.92,40.83,29.59,40.74,29.2,40.74z"/>
			<path class="st2" d="M39.18,38.93c1.24,0,2.19,0.27,2.86,0.81c0.66,0.54,0.99,1.36,0.99,2.47v6.17h-1.76l-0.49-1.26h-0.07
				c-0.27,0.33-0.54,0.6-0.81,0.81c-0.28,0.21-0.59,0.36-0.95,0.46s-0.8,0.15-1.31,0.15c-0.55,0-1.04-0.11-1.47-0.32
				s-0.77-0.53-1.02-0.96s-0.37-0.98-0.37-1.65c0-0.98,0.35-1.71,1.04-2.17c0.69-0.47,1.73-0.72,3.11-0.77l1.61-0.05v-0.41
				c0-0.49-0.13-0.84-0.38-1.07c-0.25-0.23-0.61-0.34-1.06-0.34c-0.45,0-0.89,0.06-1.32,0.19s-0.86,0.29-1.29,0.48l-0.84-1.71
				c0.49-0.26,1.04-0.46,1.65-0.61C37.9,39,38.53,38.93,39.18,38.93z M40.52,44.09l-0.98,0.03c-0.82,0.02-1.38,0.17-1.7,0.44
				s-0.48,0.63-0.48,1.07c0,0.39,0.11,0.66,0.34,0.82s0.52,0.24,0.89,0.24c0.54,0,1-0.16,1.37-0.48s0.56-0.78,0.56-1.37V44.09z"/>
			<path class="st2" d="M47.83,48.38l-3.53-9.26h2.64l1.79,5.28c0.1,0.31,0.18,0.63,0.24,0.98c0.06,0.34,0.1,0.65,0.12,0.92h0.07
				c0.02-0.29,0.06-0.61,0.12-0.94s0.15-0.65,0.25-0.96l1.78-5.28h2.64l-3.53,9.26H47.83z"/>
			<path class="st2" d="M59.1,38.94c0.86,0,1.59,0.16,2.21,0.49c0.62,0.33,1.1,0.8,1.43,1.43c0.34,0.62,0.5,1.39,0.5,2.29v1.23
				h-5.97c0.03,0.71,0.24,1.27,0.64,1.68c0.4,0.41,0.96,0.61,1.67,0.61c0.59,0,1.13-0.06,1.62-0.18c0.49-0.12,1-0.3,1.52-0.55v1.96
				c-0.46,0.23-0.94,0.39-1.44,0.5c-0.5,0.11-1.11,0.16-1.82,0.16c-0.93,0-1.75-0.17-2.46-0.51c-0.71-0.34-1.28-0.86-1.68-1.57
				c-0.41-0.7-0.61-1.58-0.61-2.65c0-1.08,0.18-1.98,0.55-2.7s0.88-1.26,1.54-1.62C57.46,39.12,58.23,38.94,59.1,38.94z
				 M59.12,40.74c-0.49,0-0.9,0.16-1.22,0.47s-0.51,0.81-0.56,1.48h3.54c-0.01-0.38-0.07-0.71-0.2-1c-0.13-0.29-0.32-0.52-0.58-0.7
				C59.84,40.83,59.51,40.74,59.12,40.74z"/>
			<path class="st2" d="M24.09,66.89c0.28,0,0.55-0.03,0.81-0.08c0.26-0.06,0.52-0.12,0.78-0.21v1.88c-0.27,0.12-0.61,0.22-1.01,0.3
				s-0.84,0.12-1.31,0.12c-0.55,0-1.05-0.09-1.49-0.27c-0.44-0.18-0.78-0.49-1.04-0.94c-0.25-0.44-0.38-1.06-0.38-1.86v-4.46h-1.21
				V60.3l1.39-0.84l0.73-1.96h1.62v1.97h2.59v1.9h-2.59v4.46c0,0.35,0.1,0.62,0.3,0.79S23.75,66.89,24.09,66.89z"/>
			<path class="st2" d="M32.72,59.3c0.13,0,0.27,0.01,0.44,0.02c0.17,0.01,0.3,0.03,0.41,0.05l-0.19,2.37
				c-0.08-0.03-0.2-0.05-0.35-0.06c-0.15-0.01-0.28-0.02-0.39-0.02c-0.33,0-0.64,0.04-0.95,0.12c-0.31,0.08-0.58,0.22-0.82,0.4
				c-0.24,0.18-0.44,0.43-0.58,0.73c-0.14,0.3-0.21,0.67-0.21,1.11v4.71h-2.53v-9.26h1.91l0.37,1.56h0.12
				c0.18-0.32,0.41-0.6,0.68-0.87c0.27-0.26,0.59-0.47,0.94-0.63C31.93,59.38,32.31,59.3,32.72,59.3z"/>
			<path class="st2" d="M39.05,59.28c1.24,0,2.19,0.27,2.86,0.81c0.66,0.54,0.99,1.36,0.99,2.47v6.17h-1.76l-0.49-1.26h-0.07
				c-0.27,0.33-0.54,0.6-0.81,0.81c-0.28,0.21-0.59,0.36-0.95,0.46s-0.8,0.15-1.31,0.15c-0.55,0-1.04-0.11-1.47-0.32
				s-0.77-0.53-1.02-0.96s-0.37-0.98-0.37-1.65c0-0.98,0.35-1.71,1.04-2.17c0.69-0.47,1.73-0.72,3.11-0.77l1.61-0.05v-0.41
				c0-0.49-0.13-0.84-0.38-1.07c-0.25-0.23-0.61-0.34-1.06-0.34c-0.45,0-0.89,0.06-1.32,0.19s-0.86,0.29-1.29,0.48l-0.84-1.71
				c0.49-0.26,1.04-0.46,1.65-0.61C37.76,59.36,38.39,59.28,39.05,59.28z M40.39,64.44l-0.98,0.03c-0.82,0.02-1.38,0.17-1.7,0.44
				s-0.48,0.63-0.48,1.07c0,0.39,0.11,0.66,0.34,0.82s0.52,0.24,0.89,0.24c0.54,0,1-0.16,1.37-0.48s0.56-0.78,0.56-1.37V64.44z"/>
			<path class="st2" d="M49.26,68.9c-0.92,0-1.7-0.17-2.34-0.5c-0.65-0.33-1.14-0.85-1.47-1.55c-0.34-0.7-0.51-1.6-0.51-2.69
				c0-1.13,0.19-2.06,0.58-2.77s0.92-1.24,1.6-1.58c0.68-0.34,1.47-0.5,2.37-0.5c0.64,0,1.19,0.06,1.66,0.19
				c0.47,0.12,0.87,0.27,1.22,0.44l-0.75,1.96c-0.4-0.16-0.77-0.29-1.11-0.39c-0.34-0.1-0.69-0.15-1.03-0.15
				c-0.44,0-0.81,0.1-1.1,0.31c-0.29,0.21-0.51,0.52-0.65,0.93c-0.14,0.41-0.22,0.93-0.22,1.56c0,0.61,0.08,1.12,0.23,1.52
				c0.15,0.4,0.38,0.7,0.67,0.9c0.29,0.2,0.65,0.29,1.07,0.29c0.52,0,0.99-0.07,1.4-0.21s0.81-0.34,1.19-0.59v2.16
				c-0.39,0.24-0.79,0.42-1.21,0.53C50.44,68.85,49.9,68.9,49.26,68.9z"/>
			<path class="st2" d="M56.75,55.85v5.76c0,0.35-0.01,0.7-0.04,1.04c-0.03,0.35-0.06,0.7-0.09,1.04h0.03
				c0.17-0.24,0.35-0.48,0.53-0.72c0.18-0.24,0.37-0.47,0.58-0.69l2.59-2.82h2.85l-3.68,4.02l3.9,5.24H60.5l-2.67-3.75l-1.08,0.87
				v2.88h-2.53V55.85H56.75z"/>
			<path class="st2" d="M68.56,59.3c0.86,0,1.59,0.16,2.21,0.49c0.62,0.33,1.1,0.8,1.43,1.43c0.34,0.62,0.5,1.39,0.5,2.29v1.23
				h-5.97c0.03,0.71,0.24,1.27,0.64,1.68c0.4,0.41,0.96,0.61,1.67,0.61c0.59,0,1.13-0.06,1.62-0.18c0.49-0.12,1-0.3,1.52-0.55v1.96
				c-0.46,0.23-0.94,0.39-1.44,0.5c-0.5,0.11-1.11,0.16-1.82,0.16c-0.93,0-1.75-0.17-2.46-0.51c-0.72-0.34-1.28-0.86-1.68-1.57
				c-0.41-0.7-0.61-1.58-0.61-2.65c0-1.08,0.18-1.98,0.55-2.7s0.88-1.26,1.54-1.62C66.92,59.48,67.69,59.3,68.56,59.3z M68.58,61.1
				c-0.49,0-0.9,0.16-1.22,0.47s-0.51,0.81-0.56,1.48h3.54c-0.01-0.38-0.07-0.71-0.2-1s-0.32-0.52-0.58-0.7
				C69.3,61.18,68.97,61.1,68.58,61.1z"/>
			<path class="st2" d="M79.93,59.3c0.13,0,0.27,0.01,0.44,0.02c0.17,0.01,0.3,0.03,0.41,0.05l-0.19,2.37
				c-0.08-0.03-0.2-0.05-0.35-0.06c-0.15-0.01-0.28-0.02-0.39-0.02c-0.33,0-0.64,0.04-0.95,0.12c-0.31,0.08-0.58,0.22-0.82,0.4
				c-0.24,0.18-0.43,0.43-0.58,0.73c-0.14,0.3-0.21,0.67-0.21,1.11v4.71h-2.53v-9.26h1.91l0.37,1.56h0.12
				c0.18-0.32,0.41-0.6,0.68-0.87c0.27-0.26,0.59-0.47,0.94-0.63C79.14,59.38,79.52,59.3,79.93,59.3z"/>
		</g>
	</g>
</g>
</svg>
