<?xml version="1.0" encoding="utf-8"?>
<!-- Generator: Adobe Illustrator 26.0.1, SVG Export Plug-In . SVG Version: 6.00 Build 0)  -->
<svg version="1.1" id="Layer_1" xmlns="http://www.w3.org/2000/svg" xmlns:xlink="http://www.w3.org/1999/xlink" x="0px" y="0px"
	 viewBox="0 0 500 150" style="enable-background:new 0 0 500 150;" xml:space="preserve">
<g>
	<path d="M107.59,59.62l-2.59-8.5H91.99l-2.59,8.5h-8.15l12.6-35.84h9.25l12.65,35.84H107.59z M103.2,44.78l-2.59-8.3
		c-0.16-0.55-0.38-1.27-0.65-2.14c-0.27-0.87-0.54-1.76-0.81-2.66s-0.48-1.69-0.65-2.36c-0.16,0.67-0.39,1.49-0.67,2.48
		c-0.29,0.98-0.56,1.92-0.82,2.8c-0.26,0.88-0.45,1.51-0.56,1.88l-2.56,8.3H103.2z"/>
	<path d="M135.16,31.82c2.91,0,5.26,0.79,7.03,2.38c1.77,1.59,2.66,4.13,2.66,7.63v17.8h-7.45V43.68c0-1.95-0.35-3.43-1.06-4.42
		c-0.71-0.99-1.82-1.49-3.33-1.49c-2.28,0-3.83,0.77-4.66,2.32c-0.83,1.55-1.25,3.78-1.25,6.69v12.84h-7.45V32.33h5.69l1,3.49h0.42
		c0.59-0.94,1.31-1.71,2.19-2.29c0.87-0.59,1.84-1.02,2.91-1.29C132.91,31.96,134.02,31.82,135.16,31.82z"/>
	<path d="M168.02,31.82c2.91,0,5.26,0.79,7.03,2.38c1.77,1.59,2.66,4.13,2.66,7.63v17.8h-7.45V43.68c0-1.95-0.35-3.43-1.06-4.42
		c-0.71-0.99-1.82-1.49-3.33-1.49c-2.28,0-3.83,0.77-4.66,2.32c-0.83,1.55-1.25,3.78-1.25,6.69v12.84h-7.45V32.33h5.69l1,3.49h0.42
		c0.59-0.94,1.31-1.71,2.19-2.29c0.87-0.59,1.84-1.02,2.91-1.29C165.78,31.96,166.88,31.82,168.02,31.82z"/>
	<path d="M210.42,32.33v27.29h-5.71l-1-3.49h-0.39c-0.59,0.93-1.32,1.68-2.2,2.27s-1.85,1.02-2.91,1.29
		c-1.06,0.28-2.16,0.42-3.3,0.42c-1.95,0-3.65-0.35-5.1-1.04c-1.45-0.69-2.58-1.77-3.38-3.23s-1.21-3.37-1.21-5.71v-17.8h7.45v15.94
		c0,1.95,0.35,3.43,1.05,4.42c0.7,0.99,1.81,1.49,3.34,1.49c1.51,0,2.7-0.35,3.56-1.04c0.86-0.69,1.47-1.71,1.82-3.05
		c0.35-1.34,0.52-2.98,0.52-4.92V32.33H210.42z"/>
	<path d="M229.42,31.77c3.66,0,6.47,0.8,8.42,2.39c1.95,1.6,2.93,4.02,2.93,7.28v18.19h-5.2l-1.44-3.71h-0.2
		c-0.78,0.98-1.58,1.77-2.39,2.39c-0.81,0.62-1.75,1.07-2.81,1.37c-1.06,0.29-2.34,0.44-3.86,0.44c-1.61,0-3.06-0.31-4.33-0.93
		c-1.28-0.62-2.28-1.57-3.02-2.84c-0.73-1.28-1.1-2.9-1.1-4.87c0-2.9,1.02-5.03,3.05-6.41c2.03-1.38,5.09-2.14,9.16-2.28l4.74-0.15
		v-1.2c0-1.43-0.37-2.48-1.12-3.15c-0.75-0.67-1.79-1-3.12-1c-1.32,0-2.61,0.19-3.88,0.56c-1.27,0.37-2.54,0.85-3.81,1.42
		l-2.47-5.03c1.45-0.76,3.07-1.37,4.87-1.81C225.64,31.99,227.5,31.77,229.42,31.77z M233.37,46.98l-2.88,0.1
		c-2.41,0.07-4.08,0.5-5.02,1.29c-0.94,0.8-1.4,1.85-1.4,3.15c0,1.14,0.33,1.95,1,2.43c0.67,0.48,1.54,0.72,2.61,0.72
		c1.59,0,2.94-0.47,4.04-1.42c1.1-0.94,1.65-2.29,1.65-4.03V46.98z"/>
	<path d="M255.88,59.62h-7.45V21.64h7.45V59.62z"/>
	<path d="M277.27,59.62V23.93h7.57v29.44h14.48v6.25H277.27z"/>
	<path d="M316.19,31.82c2.52,0,4.7,0.48,6.52,1.45c1.82,0.97,3.23,2.37,4.22,4.21c0.99,1.84,1.49,4.09,1.49,6.74v3.61h-17.6
		c0.08,2.1,0.71,3.75,1.89,4.94s2.82,1.79,4.92,1.79c1.74,0,3.34-0.18,4.79-0.54c1.45-0.36,2.94-0.9,4.47-1.61v5.76
		c-1.35,0.67-2.76,1.16-4.24,1.46c-1.47,0.31-3.26,0.46-5.36,0.46c-2.73,0-5.16-0.5-7.26-1.51c-2.11-1.01-3.76-2.55-4.96-4.61
		c-1.2-2.07-1.79-4.67-1.79-7.81c0-3.19,0.54-5.85,1.62-7.97s2.59-3.72,4.53-4.79C311.36,32.35,313.62,31.82,316.19,31.82z
		 M316.24,37.11c-1.45,0-2.65,0.46-3.6,1.39c-0.95,0.93-1.5,2.38-1.65,4.37h10.45c-0.02-1.11-0.22-2.09-0.6-2.95
		c-0.38-0.86-0.95-1.55-1.71-2.05C318.37,37.37,317.41,37.11,316.24,37.11z"/>
	<path d="M345.65,31.77c3.66,0,6.47,0.8,8.42,2.39c1.95,1.6,2.93,4.02,2.93,7.28v18.19h-5.2l-1.44-3.71h-0.2
		c-0.78,0.98-1.58,1.77-2.39,2.39c-0.81,0.62-1.75,1.07-2.81,1.37c-1.06,0.29-2.34,0.44-3.86,0.44c-1.61,0-3.06-0.31-4.33-0.93
		s-2.28-1.57-3.01-2.84c-0.73-1.28-1.1-2.9-1.1-4.87c0-2.9,1.02-5.03,3.05-6.41c2.03-1.38,5.09-2.14,9.16-2.28l4.74-0.15v-1.2
		c0-1.43-0.38-2.48-1.12-3.15c-0.75-0.67-1.79-1-3.12-1c-1.32,0-2.61,0.19-3.88,0.56c-1.27,0.37-2.54,0.85-3.81,1.42l-2.47-5.03
		c1.45-0.76,3.07-1.37,4.87-1.81C341.87,31.99,343.73,31.77,345.65,31.77z M349.61,46.98l-2.88,0.1c-2.41,0.07-4.08,0.5-5.02,1.29
		c-0.94,0.8-1.4,1.85-1.4,3.15c0,1.14,0.33,1.95,1,2.43c0.67,0.48,1.54,0.72,2.61,0.72c1.59,0,2.94-0.47,4.04-1.42
		c1.1-0.94,1.65-2.29,1.65-4.03V46.98z"/>
	<path d="M371.17,59.62l-10.4-27.29h7.79l5.27,15.55c0.29,0.91,0.53,1.87,0.7,2.88c0.17,1.01,0.29,1.91,0.35,2.71h0.2
		c0.05-0.86,0.17-1.78,0.35-2.76c0.19-0.98,0.43-1.92,0.74-2.83l5.25-15.55h7.79l-10.4,27.29H371.17z"/>
	<path d="M404.37,31.82c2.52,0,4.7,0.48,6.52,1.45c1.82,0.97,3.23,2.37,4.22,4.21c0.99,1.84,1.49,4.09,1.49,6.74v3.61H399
		c0.08,2.1,0.71,3.75,1.89,4.94s2.82,1.79,4.92,1.79c1.74,0,3.34-0.18,4.79-0.54c1.45-0.36,2.94-0.9,4.47-1.61v5.76
		c-1.35,0.67-2.76,1.16-4.23,1.46c-1.47,0.31-3.26,0.46-5.36,0.46c-2.73,0-5.16-0.5-7.26-1.51c-2.11-1.01-3.76-2.55-4.96-4.61
		c-1.2-2.07-1.79-4.67-1.79-7.81c0-3.19,0.54-5.85,1.62-7.97s2.59-3.72,4.53-4.79C399.54,32.35,401.8,31.82,404.37,31.82z
		 M404.42,37.11c-1.45,0-2.65,0.46-3.6,1.39c-0.95,0.93-1.5,2.38-1.65,4.37h10.45c-0.02-1.11-0.22-2.09-0.6-2.95
		c-0.38-0.86-0.95-1.55-1.71-2.05C406.55,37.37,405.59,37.11,404.42,37.11z"/>
	<path d="M113.65,119.62h-7.57V90.23h-9.69v-6.3h26.95v6.3h-9.69V119.62z"/>
	<path d="M143.48,91.82c0.37,0,0.81,0.02,1.31,0.06c0.5,0.04,0.9,0.09,1.21,0.16l-0.56,6.98c-0.24-0.08-0.59-0.14-1.04-0.18
		c-0.45-0.04-0.83-0.06-1.16-0.06c-0.96,0-1.89,0.12-2.8,0.37s-1.71,0.64-2.43,1.18c-0.72,0.54-1.28,1.26-1.7,2.15
		c-0.42,0.89-0.62,1.97-0.62,3.26v13.89h-7.45V92.33h5.64l1.1,4.59h0.37c0.54-0.93,1.21-1.78,2.01-2.55
		c0.81-0.77,1.73-1.39,2.76-1.86C141.16,92.05,142.28,91.82,143.48,91.82z"/>
	<path d="M162.13,91.77c3.66,0,6.47,0.8,8.42,2.39c1.95,1.6,2.93,4.02,2.93,7.28v18.19h-5.2l-1.44-3.71h-0.2
		c-0.78,0.98-1.58,1.77-2.39,2.39c-0.81,0.62-1.75,1.07-2.81,1.37c-1.06,0.29-2.34,0.44-3.86,0.44c-1.61,0-3.06-0.31-4.33-0.93
		c-1.28-0.62-2.28-1.57-3.02-2.84c-0.73-1.28-1.1-2.9-1.1-4.87c0-2.9,1.02-5.03,3.05-6.41c2.03-1.38,5.09-2.14,9.16-2.28l4.74-0.15
		v-1.2c0-1.43-0.37-2.48-1.12-3.15c-0.75-0.67-1.79-1-3.12-1c-1.32,0-2.61,0.19-3.88,0.56c-1.27,0.38-2.54,0.85-3.81,1.42
		l-2.47-5.03c1.45-0.76,3.07-1.37,4.87-1.81C158.35,91.99,160.21,91.77,162.13,91.77z M166.09,106.98l-2.88,0.1
		c-2.41,0.07-4.08,0.5-5.02,1.29c-0.94,0.8-1.4,1.85-1.4,3.15c0,1.14,0.33,1.95,1,2.43c0.67,0.48,1.54,0.72,2.61,0.72
		c1.59,0,2.94-0.47,4.04-1.42c1.1-0.94,1.65-2.29,1.65-4.03V106.98z"/>
	<path d="M192.24,120.11c-2.7,0-5-0.49-6.91-1.48c-1.9-0.99-3.35-2.51-4.35-4.58c-0.99-2.07-1.49-4.71-1.49-7.93
		c0-3.34,0.57-6.06,1.7-8.17c1.13-2.11,2.7-3.66,4.71-4.65c2.01-0.99,4.34-1.49,6.99-1.49c1.89,0,3.52,0.18,4.9,0.55
		c1.38,0.37,2.58,0.8,3.6,1.31l-2.2,5.76c-1.17-0.47-2.26-0.86-3.27-1.16c-1.01-0.3-2.02-0.45-3.03-0.45c-1.3,0-2.38,0.31-3.25,0.92
		c-0.86,0.61-1.51,1.53-1.93,2.75c-0.42,1.22-0.63,2.75-0.63,4.59c0,1.81,0.23,3.3,0.68,4.49c0.46,1.19,1.11,2.07,1.98,2.65
		c0.86,0.58,1.91,0.87,3.15,0.87c1.55,0,2.92-0.21,4.13-0.62c1.2-0.42,2.38-1,3.52-1.75v6.37c-1.14,0.72-2.33,1.23-3.58,1.55
		C195.72,119.95,194.14,120.11,192.24,120.11z"/>
	<path d="M214.31,81.64v16.99c0,1.03-0.04,2.05-0.12,3.08c-0.08,1.03-0.17,2.05-0.27,3.08h0.1c0.5-0.72,1.02-1.42,1.55-2.12
		c0.53-0.7,1.09-1.38,1.7-2.03l7.64-8.3h8.4l-10.84,11.84l11.5,15.45h-8.59l-7.86-11.06l-3.2,2.56v8.5h-7.45V81.64H214.31z"/>
	<path d="M249.12,91.82c2.52,0,4.7,0.48,6.52,1.45c1.82,0.97,3.23,2.37,4.22,4.21c0.99,1.84,1.49,4.09,1.49,6.74v3.61h-17.6
		c0.08,2.1,0.71,3.75,1.89,4.94c1.18,1.2,2.82,1.79,4.92,1.79c1.74,0,3.34-0.18,4.79-0.54c1.45-0.36,2.94-0.89,4.47-1.61v5.76
		c-1.35,0.67-2.76,1.16-4.24,1.46s-3.26,0.46-5.36,0.46c-2.73,0-5.16-0.5-7.26-1.51c-2.11-1.01-3.76-2.55-4.96-4.61
		c-1.2-2.07-1.79-4.67-1.79-7.81c0-3.19,0.54-5.85,1.62-7.97c1.08-2.12,2.59-3.72,4.53-4.79C244.29,92.35,246.55,91.82,249.12,91.82
		z M249.17,97.11c-1.45,0-2.65,0.46-3.6,1.39s-1.5,2.38-1.65,4.37h10.45c-0.02-1.11-0.22-2.09-0.6-2.95
		c-0.38-0.86-0.95-1.55-1.71-2.05C251.31,97.37,250.34,97.11,249.17,97.11z"/>
	<path d="M282.64,91.82c0.37,0,0.81,0.02,1.31,0.06c0.5,0.04,0.9,0.09,1.21,0.16l-0.56,6.98c-0.24-0.08-0.59-0.14-1.04-0.18
		c-0.45-0.04-0.83-0.06-1.16-0.06c-0.96,0-1.89,0.12-2.8,0.37c-0.9,0.24-1.71,0.64-2.43,1.18c-0.72,0.54-1.28,1.26-1.7,2.15
		c-0.42,0.89-0.62,1.97-0.62,3.26v13.89h-7.45V92.33h5.64l1.1,4.59h0.37c0.54-0.93,1.21-1.78,2.01-2.55
		c0.81-0.77,1.73-1.39,2.76-1.86C280.32,92.05,281.44,91.82,282.64,91.82z"/>
	<path d="M310.55,119.62h-7.45V81.64h7.45V119.62z"/>
	<path d="M343.16,105.93c0,2.28-0.3,4.3-0.92,6.05c-0.61,1.76-1.5,3.24-2.66,4.46c-1.16,1.21-2.56,2.13-4.2,2.75
		c-1.64,0.62-3.48,0.93-5.53,0.93c-1.92,0-3.68-0.31-5.29-0.93s-2.99-1.53-4.17-2.75c-1.18-1.21-2.09-2.7-2.73-4.46
		c-0.64-1.76-0.96-3.78-0.96-6.05c0-3.03,0.54-5.59,1.61-7.69s2.6-3.69,4.59-4.79c1.99-1.09,4.35-1.64,7.1-1.64
		c2.56,0,4.82,0.55,6.8,1.64c1.98,1.09,3.53,2.69,4.66,4.79S343.16,102.9,343.16,105.93z M324.29,105.93c0,1.79,0.2,3.3,0.59,4.52
		s1,2.14,1.83,2.76c0.83,0.62,1.91,0.93,3.25,0.93c1.32,0,2.39-0.31,3.21-0.93c0.82-0.62,1.42-1.54,1.81-2.76s0.57-2.73,0.57-4.52
		c0-1.81-0.19-3.31-0.57-4.5c-0.38-1.2-0.99-2.09-1.82-2.7c-0.83-0.6-1.91-0.9-3.25-0.9c-1.97,0-3.4,0.68-4.28,2.03
		C324.74,101.2,324.29,103.23,324.29,105.93z"/>
	<path d="M357.3,131.64c-3.81,0-6.72-0.66-8.73-1.99c-2.01-1.33-3.02-3.19-3.02-5.58c0-1.64,0.51-3.02,1.54-4.13s2.53-1.9,4.52-2.37
		c-0.77-0.33-1.43-0.86-2-1.6c-0.57-0.74-0.85-1.53-0.85-2.36c0-1.04,0.3-1.91,0.9-2.6c0.6-0.69,1.47-1.37,2.61-2.04
		c-1.43-0.62-2.57-1.61-3.41-2.98c-0.84-1.37-1.26-2.98-1.26-4.83c0-1.99,0.44-3.67,1.31-5.07c0.87-1.39,2.14-2.45,3.81-3.19
		c1.67-0.73,3.7-1.1,6.09-1.1c0.5,0,1.09,0.03,1.76,0.1c0.67,0.07,1.28,0.14,1.84,0.22c0.56,0.08,0.94,0.15,1.14,0.2h9.52v3.78
		l-4.27,1.1c0.39,0.6,0.68,1.25,0.88,1.93s0.29,1.41,0.29,2.17c0,2.93-1.02,5.21-3.06,6.85c-2.04,1.64-4.88,2.45-8.51,2.45
		c-0.86-0.05-1.68-0.11-2.44-0.2c-0.38,0.29-0.66,0.6-0.85,0.93c-0.2,0.33-0.29,0.67-0.29,1.03c0,0.36,0.15,0.66,0.45,0.89
		c0.3,0.24,0.76,0.41,1.37,0.54c0.61,0.12,1.37,0.18,2.28,0.18h4.64c3,0,5.28,0.64,6.85,1.93c1.57,1.29,2.36,3.17,2.36,5.66
		c0,3.19-1.33,5.66-3.99,7.42C366.1,130.76,362.28,131.64,357.3,131.64z M357.62,126.78c1.77,0,3.3-0.17,4.58-0.5
		c1.28-0.33,2.26-0.8,2.94-1.42c0.68-0.61,1.03-1.34,1.03-2.18c0-0.68-0.2-1.22-0.6-1.62c-0.4-0.4-1-0.68-1.81-0.84
		c-0.81-0.16-1.84-0.24-3.09-0.24h-3.86c-0.91,0-1.73,0.15-2.45,0.44s-1.3,0.7-1.72,1.23c-0.42,0.53-0.63,1.14-0.63,1.84
		c0,1.03,0.49,1.83,1.48,2.42S355.84,126.78,357.62,126.78z M358.81,106.07c1.4,0,2.42-0.43,3.08-1.29
		c0.65-0.86,0.98-2.03,0.98-3.52c0-1.64-0.34-2.88-1.01-3.7c-0.68-0.82-1.69-1.23-3.04-1.23c-1.37,0-2.39,0.41-3.08,1.23
		c-0.68,0.82-1.03,2.06-1.03,3.7c0,1.48,0.34,2.65,1.01,3.52C356.4,105.64,357.43,106.07,358.81,106.07z"/>
	<path d="M402.37,105.93c0,2.28-0.3,4.3-0.92,6.05c-0.61,1.76-1.5,3.24-2.66,4.46c-1.16,1.21-2.56,2.13-4.2,2.75
		c-1.64,0.62-3.48,0.93-5.53,0.93c-1.92,0-3.68-0.31-5.29-0.93s-2.99-1.53-4.17-2.75c-1.18-1.21-2.09-2.7-2.74-4.46
		s-0.96-3.78-0.96-6.05c0-3.03,0.54-5.59,1.61-7.69c1.08-2.1,2.6-3.69,4.59-4.79c1.98-1.09,4.35-1.64,7.1-1.64
		c2.55,0,4.82,0.55,6.8,1.64c1.98,1.09,3.53,2.69,4.66,4.79S402.37,102.9,402.37,105.93z M383.5,105.93c0,1.79,0.2,3.3,0.59,4.52
		s1,2.14,1.83,2.76c0.83,0.62,1.91,0.93,3.25,0.93c1.32,0,2.39-0.31,3.21-0.93c0.82-0.62,1.42-1.54,1.81-2.76s0.57-2.73,0.57-4.52
		c0-1.81-0.19-3.31-0.57-4.5c-0.38-1.2-0.99-2.09-1.82-2.7c-0.83-0.6-1.91-0.9-3.25-0.9c-1.97,0-3.4,0.68-4.28,2.03
		C383.94,101.2,383.5,103.23,383.5,105.93z"/>
</g>
</svg>
